<svg width="68" height="68" viewBox="0 0 68 68" fill="none" xmlns="http://www.w3.org/2000/svg">
<path d="M34 68C29.2966 68 24.8767 67.1069 20.74 65.3208C16.6033 63.5346 13.005 61.1127 9.945 58.055C6.885 54.9973 4.46307 51.3989 2.6792 47.26C0.895337 43.1211 0.00227097 38.7011 4.30379e-06 34C-0.00226236 29.2989 0.890804 24.8789 2.6792 20.74C4.4676 16.6011 6.88953 13.0027 9.945 9.945C13.0005 6.88727 16.5988 4.46533 20.74 2.6792C24.8812 0.893067 29.3012 0 34 0C38.6988 0 43.1188 0.893067 47.26 2.6792C51.4012 4.46533 54.9995 6.88727 58.055 9.945C61.1104 13.0027 63.5335 16.6011 65.3242 20.74C67.1148 24.8789 68.0068 29.2989 68 34C67.9932 38.7011 67.1001 43.1211 65.3208 47.26C63.5414 51.3989 61.1195 54.9973 58.055 58.055C54.9904 61.1127 51.3921 63.5358 47.26 65.3242C43.1278 67.1126 38.7078 68.0045 34 68ZM34 61.2C41.5933 61.2 48.025 58.565 53.295 53.295C58.565 48.025 61.2 41.5933 61.2 34C61.2 26.4067 58.565 19.975 53.295 14.705C48.025 9.435 41.5933 6.8 34 6.8C26.4067 6.8 19.975 9.435 14.705 14.705C9.435 19.975 6.8 26.4067 6.8 34C6.8 41.5933 9.435 48.025 14.705 53.295C19.975 58.565 26.4067 61.2 34 61.2Z" fill="#5835E2"/>
</svg>
