<svg width="68" height="68" viewBox="0 0 68 68" fill="none" xmlns="http://www.w3.org/2000/svg">
<path d="M34 0.5C38.3442 0.500002 42.4411 1.27391 46.2949 2.81934L47.0615 3.13867C50.8918 4.79071 54.2473 6.9915 57.1309 9.74121L57.7012 10.2988C60.522 13.1217 62.7973 16.4136 64.5264 20.1787L64.8652 20.9385C66.5174 24.7574 67.3937 28.8211 67.4912 33.1338L67.5 33.999C67.4937 38.3455 66.7195 42.4429 65.1797 46.2949L64.8613 47.0625C63.2158 50.8902 61.0149 54.2445 58.2598 57.1299L57.7021 57.7012C54.8724 60.5246 51.5792 62.8001 47.8193 64.5273L47.0615 64.8652C42.9951 66.6252 38.6426 67.5045 34 67.5C29.6517 67.5 25.5549 66.7259 21.7051 65.1807L20.9385 64.8613C17.1125 63.2093 13.7575 61.0086 10.8701 58.2588L10.2988 57.7012C7.4738 54.8782 5.19894 51.5863 3.47559 47.8213L3.13867 47.0625C1.3829 42.9888 0.502267 38.636 0.5 34L0.509766 33.1338C0.604334 29.1085 1.37442 25.3 2.81836 21.7051L3.13867 20.9385C4.79293 17.11 6.99404 13.7548 9.74219 10.8691L10.2988 10.2988C13.1197 7.47585 16.4116 5.20086 20.1787 3.47559L20.9385 3.13867C25.0144 1.38072 29.3665 0.5 34 0.5ZM34 6.2998C26.2769 6.2998 19.7173 8.98583 14.3516 14.3516C8.98583 19.7173 6.2998 26.2769 6.2998 34C6.29981 41.4817 8.82074 47.8713 13.8564 53.1416L14.3516 53.6484C19.7173 59.0142 26.2769 61.7002 34 61.7002C41.4817 61.7002 47.8713 59.1793 53.1416 54.1436L53.6484 53.6484C59.0142 48.2827 61.7002 41.7231 61.7002 34C61.7002 26.2769 59.0142 19.7173 53.6484 14.3516C48.2827 8.98584 41.7231 6.29981 34 6.2998Z" fill="#FB3183" stroke="#FB3183"/>
</svg>
