<svg width="71" height="68" viewBox="0 0 71 68" fill="none" xmlns="http://www.w3.org/2000/svg">
<path fill-rule="evenodd" clip-rule="evenodd" d="M11.8822 65.0106L11.8712 65.0126L11.8002 65.0476L11.7802 65.0516L11.7662 65.0476L11.6952 65.0126C11.6846 65.0093 11.6766 65.011 11.6712 65.0176L11.6672 65.0276L11.6502 65.4556L11.6552 65.4756L11.6652 65.4886L11.7692 65.5626L11.7842 65.5666L11.7962 65.5626L11.9002 65.4886L11.9122 65.4726L11.9162 65.4556L11.8992 65.0286C11.8966 65.018 11.8909 65.012 11.8822 65.0106ZM12.1472 64.8976L12.1342 64.8996L11.9492 64.9926L11.9392 65.0026L11.9362 65.0136L11.9542 65.4436L11.9592 65.4556L11.9672 65.4626L12.1682 65.5556C12.1809 65.559 12.1906 65.5563 12.1972 65.5476L12.2012 65.5336L12.1672 64.9196C12.1639 64.9076 12.1572 64.9003 12.1472 64.8976ZM11.4322 64.8996C11.4278 64.897 11.4226 64.8961 11.4175 64.8972C11.4125 64.8983 11.4081 64.9013 11.4052 64.9056L11.3992 64.9196L11.3652 65.5336C11.3659 65.5456 11.3716 65.5536 11.3822 65.5576L11.3972 65.5556L11.5982 65.4626L11.6082 65.4546L11.6122 65.4436L11.6292 65.0136L11.6262 65.0016L11.6162 64.9916L11.4322 64.8996Z" fill="#5835E2"/>
<path fill-rule="evenodd" clip-rule="evenodd" d="M31.7746 2.14328C32.1543 1.49115 32.6983 0.950054 33.3522 0.573981C34.0061 0.197908 34.7471 0 35.5013 0C36.2555 0 36.9965 0.197908 37.6504 0.573981C38.3043 0.950054 38.8483 1.49115 39.228 2.14328L48.8725 18.7125L67.6026 22.7737C68.3394 22.9339 69.0213 23.2846 69.5804 23.7908C70.1395 24.297 70.5563 24.9411 70.7891 25.6587C71.022 26.3764 71.0628 27.1426 70.9075 27.881C70.7523 28.6193 70.4063 29.3041 69.9042 29.8669L57.1368 44.1673L59.0692 63.2472C59.1454 63.9985 59.0234 64.7567 58.7152 65.446C58.4071 66.1353 57.9237 66.7317 57.3132 67.1756C56.7028 67.6195 55.9867 67.8953 55.2364 67.9755C54.4861 68.0558 53.7279 67.9377 53.0375 67.633L35.5013 59.8974L17.9651 67.633C17.2747 67.9377 16.5165 68.0558 15.7662 67.9755C15.0159 67.8953 14.2998 67.6195 13.6893 67.1756C13.0789 66.7317 12.5955 66.1353 12.2873 65.446C11.9792 64.7567 11.8572 63.9985 11.9334 63.2472L13.8658 44.1673L1.09839 29.8704C0.595384 29.3076 0.24869 28.6226 0.0929222 27.8837C-0.0628455 27.1449 -0.0222375 26.3781 0.210692 25.6599C0.443622 24.9417 0.860724 24.2972 1.42036 23.7907C1.97999 23.2843 2.66258 22.9336 3.39997 22.7737L22.1301 18.7125L31.7746 2.14328ZM35.5013 9.46097L27.52 23.1777C27.2182 23.6955 26.8119 24.1446 26.3272 24.4966C25.8424 24.8486 25.2897 25.0957 24.7042 25.2221L9.20395 28.5823L19.7698 40.417C20.5773 41.3217 20.9672 42.5235 20.8464 43.7287L19.2488 59.521L33.7622 53.1185C34.3102 52.8768 34.9025 52.752 35.5013 52.752C36.1001 52.752 36.6924 52.8768 37.2404 53.1185L51.7538 59.521L50.1562 43.7287C50.0955 43.1324 50.1596 42.53 50.3443 41.9598C50.5291 41.3896 50.8305 40.8642 51.2293 40.417L61.7986 28.5823L46.2983 25.2221C45.7129 25.0957 45.1602 24.8486 44.6754 24.4966C44.1906 24.1446 43.7844 23.6955 43.4826 23.1777L35.5013 9.46097Z" fill="#5835E2"/>
</svg>
