<svg width="71" height="68" viewBox="0 0 71 68" fill="none" xmlns="http://www.w3.org/2000/svg">
<mask id="path-1-inside-1_194_2228" fill="white">
<path fill-rule="evenodd" clip-rule="evenodd" d="M11.8822 65.0106L11.8712 65.0126L11.8002 65.0476L11.7802 65.0516L11.7662 65.0476L11.6952 65.0126C11.6846 65.0093 11.6766 65.011 11.6712 65.0176L11.6672 65.0276L11.6502 65.4556L11.6552 65.4756L11.6652 65.4886L11.7692 65.5626L11.7842 65.5666L11.7962 65.5626L11.9002 65.4886L11.9122 65.4726L11.9162 65.4556L11.8992 65.0286C11.8966 65.018 11.8909 65.012 11.8822 65.0106ZM12.1472 64.8976L12.1342 64.8996L11.9492 64.9926L11.9392 65.0026L11.9362 65.0136L11.9542 65.4436L11.9592 65.4556L11.9672 65.4626L12.1682 65.5556C12.1809 65.559 12.1906 65.5563 12.1972 65.5476L12.2012 65.5336L12.1672 64.9196C12.1639 64.9076 12.1572 64.9003 12.1472 64.8976ZM11.4322 64.8996C11.4278 64.897 11.4226 64.8961 11.4175 64.8972C11.4125 64.8983 11.4081 64.9013 11.4052 64.9056L11.3992 64.9196L11.3652 65.5336C11.3659 65.5456 11.3716 65.5536 11.3822 65.5576L11.3972 65.5556L11.5982 65.4626L11.6082 65.4546L11.6122 65.4436L11.6292 65.0136L11.6262 65.0016L11.6162 64.9916L11.4322 64.8996Z"/>
</mask>
<path fill-rule="evenodd" clip-rule="evenodd" d="M11.8822 65.0106L11.8712 65.0126L11.8002 65.0476L11.7802 65.0516L11.7662 65.0476L11.6952 65.0126C11.6846 65.0093 11.6766 65.011 11.6712 65.0176L11.6672 65.0276L11.6502 65.4556L11.6552 65.4756L11.6652 65.4886L11.7692 65.5626L11.7842 65.5666L11.7962 65.5626L11.9002 65.4886L11.9122 65.4726L11.9162 65.4556L11.8992 65.0286C11.8966 65.018 11.8909 65.012 11.8822 65.0106ZM12.1472 64.8976L12.1342 64.8996L11.9492 64.9926L11.9392 65.0026L11.9362 65.0136L11.9542 65.4436L11.9592 65.4556L11.9672 65.4626L12.1682 65.5556C12.1809 65.559 12.1906 65.5563 12.1972 65.5476L12.2012 65.5336L12.1672 64.9196C12.1639 64.9076 12.1572 64.9003 12.1472 64.8976ZM11.4322 64.8996C11.4278 64.897 11.4226 64.8961 11.4175 64.8972C11.4125 64.8983 11.4081 64.9013 11.4052 64.9056L11.3992 64.9196L11.3652 65.5336C11.3659 65.5456 11.3716 65.5536 11.3822 65.5576L11.3972 65.5556L11.5982 65.4626L11.6082 65.4546L11.6122 65.4436L11.6292 65.0136L11.6262 65.0016L11.6162 64.9916L11.4322 64.8996Z" fill="#FB3183"/>
<path d="M11.8822 65.0106L12.0343 64.0223L11.8684 63.9967L11.7033 64.0268L11.8822 65.0106ZM11.8712 65.0126L11.6923 64.0288L11.5546 64.0538L11.4291 64.1157L11.8712 65.0126ZM11.8002 65.0476L11.9963 66.0282L12.1248 66.0025L12.2424 65.9446L11.8002 65.0476ZM11.7802 65.0516L11.5055 66.0132L11.7386 66.0797L11.9763 66.0322L11.7802 65.0516ZM11.7662 65.0476L11.3241 65.9446L11.4049 65.9844L11.4915 66.0092L11.7662 65.0476ZM11.6952 65.0126L12.1374 64.1157L12.0677 64.0813L11.9935 64.0581L11.6952 65.0126ZM11.6712 65.0176L10.8904 64.3929L10.7978 64.5087L10.7427 64.6463L11.6712 65.0176ZM11.6672 65.0276L10.7387 64.6563L10.6749 64.816L10.668 64.9879L11.6672 65.0276ZM11.6502 65.4556L10.651 65.4159L10.6453 65.5591L10.6801 65.6982L11.6502 65.4556ZM11.6552 65.4756L10.6851 65.7182L10.7356 65.9202L10.8626 66.0853L11.6552 65.4756ZM11.6652 65.4886L10.8726 66.0983L10.9637 66.2168L11.0855 66.3034L11.6652 65.4886ZM11.7692 65.5626L11.1895 66.3774L11.3368 66.4823L11.5116 66.5289L11.7692 65.5626ZM11.7842 65.5666L11.5266 66.5329L11.8161 66.6101L12.1004 66.5153L11.7842 65.5666ZM11.7962 65.5626L12.1124 66.5113L12.2542 66.4641L12.376 66.3774L11.7962 65.5626ZM11.9002 65.4886L12.48 66.3034L12.6068 66.2132L12.7002 66.0886L11.9002 65.4886ZM11.9122 65.4726L12.7122 66.0726L12.8377 65.9053L12.8857 65.7016L11.9122 65.4726ZM11.9162 65.4556L12.8897 65.6846L12.9209 65.552L12.9154 65.4158L11.9162 65.4556ZM11.8992 65.0286L12.8984 64.9888L12.8943 64.886L12.8694 64.7861L11.8992 65.0286ZM12.1472 64.8976L12.4049 63.9314L12.2024 63.8774L11.9953 63.9092L12.1472 64.8976ZM12.1342 64.8996L11.9823 63.9112L11.8262 63.9352L11.6851 64.0062L12.1342 64.8996ZM11.9492 64.9926L11.5001 64.0992L11.3561 64.1716L11.2421 64.2855L11.9492 64.9926ZM11.9392 65.0026L11.2321 64.2955L11.0443 64.4833L10.9745 64.7396L11.9392 65.0026ZM11.9362 65.0136L10.9715 64.7506L10.9306 64.9003L10.9371 65.0554L11.9362 65.0136ZM11.9542 65.4436L10.9551 65.4854L10.9626 65.6636L11.0312 65.8283L11.9542 65.4436ZM11.9592 65.4556L11.0362 65.8403L11.1257 66.055L11.3007 66.2082L11.9592 65.4556ZM11.9672 65.4626L11.3087 66.2152L11.4169 66.3098L11.5473 66.3702L11.9672 65.4626ZM12.1682 65.5556L11.7483 66.4632L11.8284 66.5002L11.9137 66.5227L12.1682 65.5556ZM12.1972 65.5476L12.9899 66.1573L13.1063 66.006L13.1588 65.8223L12.1972 65.5476ZM12.2012 65.5336L13.1628 65.8083L13.209 65.6464L13.1997 65.4783L12.2012 65.5336ZM12.1672 64.9196L13.1657 64.8643L13.1597 64.7563L13.1308 64.652L12.1672 64.9196ZM11.4322 64.8996L10.9139 65.7548L10.9487 65.7759L10.985 65.794L11.4322 64.8996ZM11.4052 64.9056L10.5735 64.3504L10.5224 64.427L10.4861 64.5117L11.4052 64.9056ZM11.3992 64.9196L10.4801 64.5257L10.4105 64.688L10.4008 64.8643L11.3992 64.9196ZM11.3652 65.5336L10.3668 65.4783L10.3637 65.5337L10.3668 65.5891L11.3652 65.5336ZM11.3822 65.5576L11.0311 66.494L11.2659 66.582L11.5145 66.5488L11.3822 65.5576ZM11.3972 65.5556L11.5295 66.5468L11.6796 66.5268L11.8172 66.4632L11.3972 65.5556ZM11.5982 65.4626L12.0182 66.3702L12.1282 66.3193L12.2229 66.2435L11.5982 65.4626ZM11.6082 65.4546L12.2329 66.2355L12.4521 66.0602L12.548 65.7964L11.6082 65.4546ZM11.6122 65.4436L12.552 65.7854L12.6053 65.6389L12.6115 65.4831L11.6122 65.4436ZM11.6292 65.0136L12.6285 65.0531L12.6341 64.91L12.5994 64.7711L11.6292 65.0136ZM11.6262 65.0016L12.5964 64.7591L12.5292 64.4904L12.3333 64.2945L11.6262 65.0016ZM11.6162 64.9916L12.3233 64.2845L12.2086 64.1698L12.0635 64.0972L11.6162 64.9916ZM11.8822 65.0106L11.7033 64.0268L11.6923 64.0288L11.8712 65.0126L12.0502 65.9965L12.0612 65.9945L11.8822 65.0106ZM11.8712 65.0126L11.4291 64.1157L11.3581 64.1507L11.8002 65.0476L12.2424 65.9446L12.3134 65.9096L11.8712 65.0126ZM11.8002 65.0476L11.6041 64.067L11.5841 64.071L11.7802 65.0516L11.9763 66.0322L11.9963 66.0282L11.8002 65.0476ZM11.7802 65.0516L12.0549 64.0901L12.0409 64.0861L11.7662 65.0476L11.4915 66.0092L11.5055 66.0132L11.7802 65.0516ZM11.7662 65.0476L12.2084 64.1507L12.1374 64.1157L11.6952 65.0126L11.2531 65.9096L11.3241 65.9446L11.7662 65.0476ZM11.6952 65.0126L11.9935 64.0581C11.8827 64.0235 11.6982 63.9864 11.4773 64.0324C11.2349 64.0829 11.0313 64.2168 10.8904 64.3929L11.6712 65.0176L12.4521 65.6423C12.3165 65.8118 12.1196 65.9415 11.8851 65.9904C11.6723 66.0347 11.4971 65.9984 11.397 65.9671L11.6952 65.0126ZM11.6712 65.0176L10.7427 64.6463L10.7387 64.6563L11.6672 65.0276L12.5957 65.399L12.5997 65.389L11.6712 65.0176ZM11.6672 65.0276L10.668 64.9879L10.651 65.4159L11.6502 65.4556L12.6494 65.4953L12.6664 65.0673L11.6672 65.0276ZM11.6502 65.4556L10.6801 65.6982L10.6851 65.7182L11.6552 65.4756L12.6254 65.2331L12.6204 65.2131L11.6502 65.4556ZM11.6552 65.4756L10.8626 66.0853L10.8726 66.0983L11.6652 65.4886L12.4579 64.8789L12.4479 64.8659L11.6552 65.4756ZM11.6652 65.4886L11.0855 66.3034L11.1895 66.3774L11.7692 65.5626L12.349 64.7478L12.245 64.6738L11.6652 65.4886ZM11.7692 65.5626L11.5116 66.5289L11.5266 66.5329L11.7842 65.5666L12.0419 64.6004L12.0269 64.5964L11.7692 65.5626ZM11.7842 65.5666L12.1004 66.5153L12.1124 66.5113L11.7962 65.5626L11.48 64.6139L11.468 64.6179L11.7842 65.5666ZM11.7962 65.5626L12.376 66.3774L12.48 66.3034L11.9002 65.4886L11.3205 64.6738L11.2165 64.7478L11.7962 65.5626ZM11.9002 65.4886L12.7002 66.0886L12.7122 66.0726L11.9122 65.4726L11.1122 64.8726L11.1002 64.8886L11.9002 65.4886ZM11.9122 65.4726L12.8857 65.7016L12.8897 65.6846L11.9162 65.4556L10.9428 65.2266L10.9388 65.2436L11.9122 65.4726ZM11.9162 65.4556L12.9154 65.4158L12.8984 64.9888L11.8992 65.0286L10.9 65.0684L10.917 65.4954L11.9162 65.4556ZM11.8992 65.0286L12.8694 64.7861C12.8398 64.6677 12.7734 64.4919 12.62 64.3295C12.4545 64.1543 12.2438 64.0545 12.0343 64.0223L11.8822 65.0106L11.7302 65.999C11.5293 65.9681 11.3258 65.872 11.166 65.7027C11.0183 65.5463 10.956 65.3789 10.9291 65.2712L11.8992 65.0286ZM12.1472 64.8976L11.9953 63.9092L11.9823 63.9112L12.1342 64.8996L12.2862 65.888L12.2992 65.886L12.1472 64.8976ZM12.1342 64.8996L11.6851 64.0062L11.5001 64.0992L11.9492 64.9926L12.3984 65.8861L12.5834 65.7931L12.1342 64.8996ZM11.9492 64.9926L11.2421 64.2855L11.2321 64.2955L11.9392 65.0026L12.6463 65.7097L12.6563 65.6997L11.9492 64.9926ZM11.9392 65.0026L10.9745 64.7396L10.9715 64.7506L11.9362 65.0136L12.901 65.2767L12.904 65.2657L11.9392 65.0026ZM11.9362 65.0136L10.9371 65.0554L10.9551 65.4854L11.9542 65.4436L12.9534 65.4018L12.9354 64.9718L11.9362 65.0136ZM11.9542 65.4436L11.0312 65.8283L11.0362 65.8403L11.9592 65.4556L12.8823 65.071L12.8773 65.059L11.9542 65.4436ZM11.9592 65.4556L11.3007 66.2082L11.3087 66.2152L11.9672 65.4626L12.6257 64.71L12.6177 64.703L11.9592 65.4556ZM11.9672 65.4626L11.5473 66.3702L11.7483 66.4632L12.1682 65.5556L12.5882 64.6481L12.3872 64.5551L11.9672 65.4626ZM12.1682 65.5556L11.9137 66.5227C12.0398 66.5559 12.2315 66.5806 12.4509 66.5201C12.6843 66.4557 12.8668 66.3174 12.9899 66.1573L12.1972 65.5476L11.4046 64.9379C11.521 64.7865 11.6953 64.6538 11.9191 64.5921C12.1288 64.5343 12.3093 64.5587 12.4227 64.5885L12.1682 65.5556ZM12.1972 65.5476L13.1588 65.8223L13.1628 65.8083L12.2012 65.5336L11.2397 65.2589L11.2357 65.2729L12.1972 65.5476ZM12.2012 65.5336L13.1997 65.4783L13.1657 64.8643L12.1672 64.9196L11.1688 64.9749L11.2028 65.5889L12.2012 65.5336ZM12.1672 64.9196L13.1308 64.652C13.0552 64.3801 12.832 64.0453 12.4049 63.9314L12.1472 64.8976L11.8896 65.8639C11.7176 65.818 11.5516 65.7228 11.4198 65.5778C11.2945 65.44 11.2334 65.2942 11.2037 65.1873L12.1672 64.9196ZM11.4322 64.8996L11.9505 64.0444C11.7257 63.9081 11.457 63.864 11.2006 63.921L11.4175 64.8972L11.6345 65.8734C11.3881 65.9281 11.13 65.8858 10.9139 65.7548L11.4322 64.8996ZM11.4175 64.8972L11.2006 63.921C10.9441 63.978 10.7195 64.1318 10.5735 64.3504L11.4052 64.9056L12.2369 65.4608C12.0967 65.6709 11.8809 65.8186 11.6345 65.8734L11.4175 64.8972ZM11.4052 64.9056L10.4861 64.5117L10.4801 64.5257L11.3992 64.9196L12.3184 65.3136L12.3244 65.2996L11.4052 64.9056ZM11.3992 64.9196L10.4008 64.8643L10.3668 65.4783L11.3652 65.5336L12.3637 65.5889L12.3977 64.9749L11.3992 64.9196ZM11.3652 65.5336L10.3668 65.5891C10.3752 65.7404 10.4201 65.9377 10.554 66.1266C10.6903 66.3191 10.8696 66.4334 11.0311 66.494L11.3822 65.5576L11.7334 64.6213C11.8842 64.6779 12.0554 64.7862 12.186 64.9706C12.3142 65.1516 12.356 65.3388 12.3637 65.4782L11.3652 65.5336ZM11.3822 65.5576L11.5145 66.5488L11.5295 66.5468L11.3972 65.5556L11.265 64.5644L11.25 64.5664L11.3822 65.5576ZM11.3972 65.5556L11.8172 66.4632L12.0182 66.3702L11.5982 65.4626L11.1783 64.5551L10.9773 64.6481L11.3972 65.5556ZM11.5982 65.4626L12.2229 66.2435L12.2329 66.2355L11.6082 65.4546L10.9836 64.6737L10.9736 64.6817L11.5982 65.4626ZM11.6082 65.4546L12.548 65.7964L12.552 65.7854L11.6122 65.4436L10.6724 65.1019L10.6684 65.1129L11.6082 65.4546ZM11.6122 65.4436L12.6115 65.4831L12.6285 65.0531L11.6292 65.0136L10.63 64.9741L10.613 65.4041L11.6122 65.4436ZM11.6292 65.0136L12.5994 64.7711L12.5964 64.7591L11.6262 65.0016L10.6561 65.2442L10.6591 65.2562L11.6292 65.0136ZM11.6262 65.0016L12.3333 64.2945L12.3233 64.2845L11.6162 64.9916L10.9091 65.6987L10.9191 65.7087L11.6262 65.0016ZM11.6162 64.9916L12.0635 64.0972L11.8795 64.0052L11.4322 64.8996L10.985 65.794L11.169 65.886L11.6162 64.9916Z" fill="#FB3183" mask="url(#path-1-inside-1_194_2228)"/>
<path d="M35.501 0.5C36.0843 0.5 36.6589 0.634404 37.1807 0.890625L37.4014 1.00781C37.9071 1.29872 38.3383 1.70127 38.6631 2.18359L38.7959 2.39453L48.4404 18.9639L48.5508 19.1543L48.7666 19.2012L67.4961 23.2617V23.2627C68.1474 23.4043 68.7508 23.7136 69.2451 24.1611C69.6776 24.5527 70.0133 25.038 70.2285 25.5781L70.3135 25.8135C70.4935 26.3686 70.5441 26.9566 70.4619 27.5322L70.418 27.7783C70.2978 28.3495 70.0492 28.8847 69.6914 29.3428L69.5312 29.5342L56.7637 43.834L56.6172 43.999L56.6396 44.2178L58.5713 63.2979C58.6302 63.8791 58.5557 64.4651 58.3535 65.0107L58.2588 65.2422C58.0203 65.7756 57.6631 66.246 57.2158 66.6182L57.0195 66.7715C56.5474 67.1148 56.0034 67.3438 55.4307 67.4434L55.1836 67.4785C54.6032 67.5406 54.017 67.4681 53.4707 67.2686L53.2393 67.1758L35.7031 59.4404L35.501 59.3506L35.2998 59.4404L17.7637 67.1758C17.2296 67.4115 16.6493 67.5209 16.0684 67.4971L15.8193 67.4785C15.2391 67.4164 14.6822 67.2216 14.1904 66.9111L13.9834 66.7715C13.4438 66.3791 13.0166 65.8516 12.7441 65.2422C12.5057 64.7088 12.3933 64.1286 12.4141 63.5469L12.4307 63.2979L14.3633 44.2178L14.3857 43.999L14.2383 43.834L1.47168 29.5371C1.08258 29.1018 0.798644 28.5838 0.641602 28.0234L0.582031 27.7803C0.461548 27.2086 0.474133 26.6179 0.617188 26.0537L0.686523 25.8145C0.892489 25.1794 1.26108 24.6089 1.75586 24.1611C2.18871 23.7695 2.70486 23.4834 3.26367 23.3232L3.50586 23.2627L22.2363 19.2012L22.4512 19.1543L22.5625 18.9639L32.207 2.39453C32.5009 1.89006 32.9057 1.46078 33.3896 1.13867L33.6016 1.00781C34.1796 0.675397 34.8344 0.500055 35.501 0.5ZM35.0693 9.20996L27.0879 22.9258C26.821 23.3836 26.4618 23.7806 26.0332 24.0918C25.6581 24.3641 25.2372 24.5656 24.791 24.6865L24.5986 24.7334L8.25977 28.2754L8.83105 28.915L19.3965 40.75C20.066 41.5002 20.4109 42.4813 20.3633 43.4795L20.3486 43.6787L18.751 59.4707L18.665 60.3252L19.4502 59.9785L33.9639 53.5762C34.4482 53.3626 34.9717 53.252 35.501 53.252C35.9643 53.252 36.4234 53.3367 36.8555 53.501L37.0391 53.5762L51.5518 59.9785L52.3379 60.3252L52.251 59.4707L50.6533 43.6787V43.6777C50.6064 43.2166 50.6442 42.7514 50.7637 42.3047L50.8203 42.1143C50.9633 41.6731 51.1851 41.2621 51.4746 40.9014L51.6025 40.75L62.1719 28.915L62.7432 28.2754L61.9043 28.0938L46.4043 24.7334C45.8868 24.6216 45.3973 24.403 44.9688 24.0918C44.5404 23.7807 44.1818 23.3834 43.915 22.9258H43.9141L35.9336 9.20996L35.501 8.4668L35.0693 9.20996Z" fill="#FB3183" stroke="#FB3183"/>
</svg>
