<svg width="84" height="76" viewBox="0 0 84 76" fill="none" xmlns="http://www.w3.org/2000/svg">
<path d="M48.5753 7.76513C47.9071 6.61995 46.948 5.66937 45.794 5.00859C44.6401 4.3478 43.3317 4 42 4C40.6683 4 39.3599 4.3478 38.206 5.00859C37.052 5.66937 36.0929 6.61995 35.4247 7.76513L5.01842 60.6644C4.35157 61.8127 4.00034 63.1151 4 64.441C3.99966 65.7669 4.35021 67.0695 5.01647 68.2181C5.68272 69.3667 6.64122 70.3208 7.79572 70.9846C8.95022 71.6485 10.2601 71.9986 11.5938 72H72.4062C73.7399 71.9986 75.0498 71.6485 76.2043 70.9846C77.3588 70.3208 78.3173 69.3667 78.9835 68.2181C79.6498 67.0695 80.0003 65.7669 80 64.441C79.9997 63.1151 79.6484 61.8127 78.9816 60.6644L48.5753 7.76513Z" stroke="#07D0B3" stroke-width="8" stroke-linecap="round" stroke-linejoin="round"/>
</svg>
