<svg width="274" height="331" viewBox="0 0 274 331" fill="none" xmlns="http://www.w3.org/2000/svg">
<path d="M175 0C229.676 1.61067e-06 274 44.3238 274 99V330.646L240.222 290L206.149 331H205.743L171.239 290L137.504 330.087L103.768 290L69.2637 331H67.8506L33.7783 290L0 330.646V99C0 44.3238 44.3238 1.61067e-06 99 0H175Z" fill="#221078"/>
<rect x="33.9336" y="41.9569" width="110.803" height="98.8174" rx="49.4087" fill="#D9D9D9" fill-opacity="0.89"/>
<rect x="166.211" y="56.512" width="64.4201" height="64.3462" rx="32.1731" fill="#D9D9D9" fill-opacity="0.89"/>
<rect x="88" y="185.737" width="99" height="32.106" rx="16.053" fill="#D9D9D9" fill-opacity="0.89"/>
<rect x="58.0469" y="89.3948" width="29.2038" height="26.0449" rx="13.0224" fill="#464450"/>
<rect x="179.094" y="82.7722" width="23.1912" height="20.6827" rx="10.3414" fill="#464450"/>
</svg>
